<?xml version="1.0" encoding="UTF-8"?>
<!DOCTYPE svg PUBLIC "-//W3C//DTD SVG 1.1//EN" "http://www.w3.org/Graphics/SVG/1.1/DTD/svg11.dtd">
<!-- Creator: CorelDRAW X8 -->
<svg xmlns="http://www.w3.org/2000/svg" xml:space="preserve" width="70mm" height="70mm" version="1.1" style="shape-rendering:geometricPrecision; text-rendering:geometricPrecision; image-rendering:optimizeQuality; fill-rule:evenodd; clip-rule:evenodd"
viewBox="0 0 7000 7000"
 xmlns:xlink="http://www.w3.org/1999/xlink">
 <defs>
  <style type="text/css">
   <![CDATA[
    .fil1 {fill:#5FC6F1}
    .fil0 {fill:#274795}
    .fil2 {fill:#274795;fill-rule:nonzero}
   ]]>
  </style>
 </defs>
 <g id="Layer_x0020_1">
  <metadata id="CorelCorpID_0Corel-Layer"/>
  <path class="fil0" d="M3410 2031l-7 32 -21 -44c8,5 18,10 28,12zm-563 2412l9 0 0 -11 13 1 20 -4 10 -13 10 -20 14 -42 12 -19 4 -31 5 -10 26 -13 29 -9 -19 -125 -4 -1 -10 -4 -9 -8 0 -16 7 -7 13 -2 17 3 18 10 12 6 18 10 6 -8 -6 -9 -4 -11 -5 0 -2 -4 3 -13 -1 -8 -6 -5 -4 -13 7 -8 20 1 38 2 15 18 -1 19 3 14 9 -14 0 -29 95 0 0 -73 28 -29 8 -269c-3,7 -6,14 -9,20 -33,0 -61,-16 -84,-39 -14,-14 -24,-30 -35,-49 -3,-4 -11,-8 -13,-13 -17,-9 -33,-13 -48,-11 -15,2 -30,10 -44,24 -3,-19 -10,-34 -21,-45 12,-10 18,-24 21,-42 19,9 33,17 45,17 27,1 40,-16 38,-16 -9,-6 -25,-12 -39,-12l-23 0 -4 -5 27 -6 0 -4 -26 -4 -2 -15 27 0 6 -7 17 -1 1 -9 4 10 13 0c0,-14 -9,-26 -12,-39 -3,-11 -4,-35 6,-44 3,-3 8,-5 13,-5 11,0 18,7 18,17 0,7 -4,11 -9,15 -2,1 -3,3 -6,3 -7,2 30,34 31,34l58 0 0 25 49 0c0,-10 0,-21 0,-31l7 0 21 -783c-2,4 -4,8 -6,12 -33,-5 -62,-25 -85,-59 -9,-13 -17,-28 -24,-45 -9,-6 -17,-9 -27,-12 -12,-2 -25,-2 -39,1 9,-16 6,-27 -3,-35 16,1 22,-9 23,-25 10,7 21,13 32,17 6,2 13,3 19,3 2,0 4,0 5,1 0,-1 0,-2 0,-3 -1,-3 -2,-5 -3,-8 -3,-5 -6,-10 -10,-15 -1,-3 -3,-5 -4,-7 -2,1 -5,1 -7,1 -2,2 -4,3 -7,5 0,1 0,1 0,2 -2,1 -3,2 -5,4 -2,-1 -4,-1 -6,-1 -1,-2 -2,-3 -4,-5 1,-3 1,-5 1,-8 2,-2 3,-3 4,-5 3,-3 6,-6 9,-8 0,-1 1,-2 1,-3 3,-3 5,-7 8,-11 -1,-5 -2,-9 -3,-13 0,0 1,-1 2,-1 2,4 4,8 7,11 1,0 2,0 3,0 4,3 8,6 13,8 1,3 3,5 5,8 7,5 15,10 23,16 2,-2 4,-4 6,-5 0,-2 1,-4 1,-6 -1,-23 -1,-46 -1,-70 11,-1 20,-1 31,-2 0,17 0,35 1,53 0,2 -1,5 1,7 4,5 9,8 15,10 9,4 19,8 29,9l5 -184c-50,-6 -83,-16 -83,-33 0,-3 1,-6 3,-8l-18 0 0 -35c-6,-4 -8,-12 -7,-20 2,-12 9,-27 14,-38 2,-4 2,-7 1,-9 0,-1 -1,-1 -1,-2 0,0 -1,0 -1,0 -1,1 -3,2 -3,5l-3 -1c1,-4 3,-6 5,-6 1,-1 2,-1 3,0 1,0 2,1 2,2l0 -6 104 0 0 -42 90 0 0 -1 -28 -128c-5,-8 -8,-16 -8,-23l0 -42 -26 0 0 -19 26 0 0 -19 158 0 0 19 25 0 0 19 -25 0 0 42c0,7 -3,14 -8,21l-28 130 0 1 90 0 0 42 99 0 0 7c0,0 0,0 0,-1 0,-1 1,-1 2,-2 1,-1 2,-1 3,0 2,0 4,2 6,6l-3 1c-1,-3 -2,-4 -3,-5 -1,0 -1,0 -2,0 0,1 0,1 -1,2 -1,2 -1,5 1,9 6,11 13,26 14,38 1,6 0,12 -3,17l4 0 0 38 -15 0c1,2 2,5 2,8 0,18 -34,29 -88,34l5 183c8,-2 17,-5 25,-9 5,-2 11,-5 15,-10 1,-2 1,-5 1,-7 0,-18 0,-36 1,-53 11,1 20,1 31,2 0,24 0,47 -1,70 0,2 1,4 1,6 2,1 4,3 6,5 8,-6 16,-11 23,-16 2,-3 4,-5 5,-8 4,-2 8,-5 13,-8 1,0 2,0 3,0 2,-3 5,-7 7,-11 1,0 1,1 2,1 -1,4 -2,8 -4,13 3,4 6,8 9,11 0,1 1,2 1,3 3,2 6,5 9,8 1,2 2,3 3,5 1,3 1,5 1,8 -1,2 -2,3 -3,5 -2,0 -4,0 -6,1 -2,-2 -3,-3 -5,-4 0,-1 0,-1 -1,-2 -2,-2 -4,-3 -6,-5 -3,0 -5,0 -7,-1 -2,2 -3,4 -5,7 -3,5 -6,10 -9,15 -1,3 -2,5 -3,8 0,1 0,2 0,3 1,-1 3,-1 5,-1 6,0 12,-1 18,-3 12,-4 23,-10 33,-17 1,16 7,26 22,25 -8,8 -11,19 -2,35 -14,-3 -27,-3 -39,-1 -10,3 -18,6 -27,12 -7,17 -15,32 -24,45 -23,34 -53,54 -85,59 -1,-1 -2,-2 -2,-4l21 806 44 0 0 -25 58 0c0,0 38,-32 30,-34 -3,0 -4,-2 -6,-3 -5,-4 -9,-8 -9,-15 0,-10 7,-17 18,-17 5,0 10,2 13,5 10,9 9,33 6,44 -3,13 -12,25 -12,39l13 0 4 -10 2 9 17 1 5 7 28 0 -3 15 -26 4 0 4 27 6 -4 5 -23 0c-13,0 -29,6 -39,12 -2,0 11,17 38,16 12,0 26,-8 45,-17 3,18 9,32 22,42 -12,11 -19,26 -22,45 -14,-14 -28,-22 -44,-24 -15,-2 -31,2 -48,11 -2,5 -10,9 -12,13 -12,19 -22,35 -35,49 -23,22 -49,38 -81,39l7 249 29 29 0 73 95 0 0 45 10 -9 14 -8 5 -25 1 -15 1 -5 -3 -7 0 -13 11 -2 15 3 1 3 -1 4 2 1 7 -4 8 -1 9 0 11 6 4 2 2 -13 -3 -6 13 -15 3 0 9 15 0 4 -5 3 0 11 2 3 -1 6 2 5 -3 3 3 5 -2 4 1 7 -7 7 -5 3 -4 27 -1 17 4 4 -2 14 2 9 6 -2 8 2 6 14 7 11 0 6 -3 3 -5 8 -1 41 1 4 18 12 4 -2 16 4 15 7 12 0 14 2 5 12 1 22 0 14 10 24 7 11 1 2 0 5 12 8 0 12 1 4 5 7 0 6 -1 6 8 15 0 1 15 6 9 11 -3 5 -7 4 32 0 0 46 0 52 170 0 0 145 -1564 0 0 -145 197 0 0 -52 0 -46zm44 0l90 0 -1 -8 9 -16 -4 -16 -9 -13 -11 -25 -2 -2 -2 9 -9 11 -11 18 -16 25 -2 5 -2 12 -30 0zm103 -298l1 9 23 112 15 -3 0 -18 7 -16 0 -6 -2 -8 4 -23 3 -3 -4 -7 -1 -13 -11 4 -5 -4 -14 -9 -12 -15 -4 0zm200 -1903l0 -55c0,1 0,1 0,1 -6,11 -12,25 -14,37 -1,7 0,13 4,17l10 0zm466 0l0 -69 -13 0 0 69 13 0zm-16 0l0 -69 -13 0 0 69 13 0zm-16 0l0 -69 -14 0 0 69 14 0zm-16 0l0 -69 -14 0 0 69 14 0zm-16 0l0 -69 -14 0 0 69 14 0zm-16 0l0 -69 -14 0 0 69 14 0zm-282 -69l-4 0c0,23 0,46 0,69l4 0 0 -69zm-7 69c0,-23 0,-46 0,-69l-14 0c0,23 0,46 0,69l14 0zm-16 0c0,-23 0,-46 0,-69l-14 0c0,23 0,46 0,69l14 0zm-16 0c0,-23 0,-46 0,-69l-14 0c0,23 0,46 0,69l14 0zm-16 0c0,-23 0,-46 0,-69l-14 0c0,23 0,46 0,69l14 0zm-17 0c0,-23 0,-46 0,-69l-13 0c0,23 0,46 0,69l13 0zm-16 0c0,-23 0,-46 0,-69l-13 0 0 69 13 0zm453 -56l0 56 10 0c4,-4 5,-10 4,-17 -1,-12 -8,-26 -13,-37 -1,0 -1,-1 -1,-2zm-269 -58l34 0 0 -1 -23 -48 -11 49zm41 0l33 0 -11 -49 -23 48 1 1zm-63 -117l29 60 -10 44 -23 -108c1,1 2,3 4,4zm123 -5l-24 109 -10 -44 30 -61c1,-1 2,-2 4,-4zm-14 12l-22 45 -7 -32c10,-3 20,-7 29,-13zm-35 15l9 38 -21 44 0 -81c4,0 8,-1 12,-1zm-18 1l0 81 -21 -44 9 -38c4,0 8,1 12,1z"/>
  <polygon class="fil1" points="4309,4775 4309,5010 2555,5010 2555,4775 "/>
  <path class="fil0" d="M5219 1966l0 220c-577,701 -809,-426 -1414,197l0 -221c605,-623 837,505 1414,-196z"/>
  <path class="fil0" d="M5219 3007l0 221c-577,701 -809,-426 -1414,197l0 -221c605,-623 837,504 1414,-197z"/>
  <path class="fil1" d="M5219 2486l0 221c-577,701 -809,-426 -1414,197l0 -221c605,-623 837,505 1414,-197z"/>
  <path class="fil1" d="M5219 3528l0 221c-577,701 -809,-427 -1414,197l0 -221c605,-623 837,504 1414,-197z"/>
  <path class="fil1" d="M1641 1966c577,701 809,-427 1414,196l0 221c-537,-553 -780,271 -1230,-24l0 1342c450,295 693,-529 1230,24l0 221c-605,-624 -837,504 -1414,-197l0 -1783z"/>
  <path class="fil2" d="M1210 4668l-19 12 -23 -35 215 -140 23 35 -121 79c-1,0 -11,7 -30,18 15,-4 33,-7 52,-8l123 -8 21 -14 24 35 -216 141 -23 -35 111 -73c2,-1 14,-9 38,-23 -15,3 -33,6 -52,7l-123 9zm281 6l39 49 -114 154 179 -74 37 47 -202 159 -25 -31 173 -135 -211 87 -19 -24 135 -182 -172 136 -23 -28 203 -158zm161 199l106 103 -24 24 -75 -73 -52 52 59 57 -25 24 -58 -57 -57 57 76 74 -24 25 -107 -104 181 -182zm127 125l31 29 -72 77 56 51 72 -77 32 28 -175 188 -31 -29 77 -83 -55 -51 -78 83 -32 -28 175 -188zm36 341l-14 18 -34 -26 158 -202 33 26 -88 113c-1,2 -9,11 -23,28 13,-9 29,-17 47,-25l114 -47 15 -20 34 26 -158 202 -34 -26 82 -104c1,-1 10,-13 28,-34 -13,8 -29,16 -47,24l-113 47zm376 -23l40 25 -81 252 -36 -23 21 -63 -64 -40 -48 45 -34 -21 202 -175zm-45 159l39 -114 -88 83 49 31zm46 98l146 -174 57 26 -50 220 13 6 -40 82 -26 -13 19 -51 -117 -56 -28 47 -27 -13 39 -81 14 7zm34 16l79 37 44 -174 -9 -5 -114 142zm247 -127l59 23 -21 190 117 -152 57 22 -95 238 -38 -15 82 -202 -138 180 -29 -12 25 -224 -81 202 -33 -13 95 -237zm220 330l-6 22 -41 -11 65 -247 41 11 -36 138c-1,2 -4,13 -11,34 9,-13 20,-26 34,-40l86 -88 6 -24 41 11 -65 247 -41 -11 34 -128c0,-1 4,-15 12,-42 -9,13 -20,26 -34,40l-85 88zm215 -183l63 11c20,3 36,8 48,14 11,6 21,16 27,30 6,14 8,30 5,49 -3,16 -9,30 -18,40 -9,11 -20,18 -32,22 -13,3 -32,2 -56,-2l-22 -3 -16 98 -43 -7 44 -252zm36 40l-15 87 21 4c19,3 32,2 40,-4 9,-6 14,-16 17,-32 2,-11 1,-21 -2,-29 -4,-8 -8,-13 -14,-16 -5,-2 -14,-5 -26,-7l-21 -3zm186 -5l47 6 39 261 -43 -5 -9 -65 -75 -9 -23 62 -40 -5 104 -245zm30 163l-16 -120 -42 113 58 7zm120 109l-40 -1 77 -253 53 1 59 257 -45 -1 -46 -214 -58 211zm220 -252l48 -1 75 253 -44 1 -17 -63 -76 2 -14 64 -41 1 69 -257zm52 157l-32 -116 -26 117 58 -1zm298 -19l40 2c-2,57 -27,88 -74,93 -32,4 -56,-5 -74,-27 -18,-22 -29,-53 -34,-93 -4,-43 0,-76 13,-101 14,-24 36,-38 66,-42 47,-5 78,21 93,78l-39 10c-8,-38 -25,-56 -49,-53 -33,4 -46,39 -38,106 7,62 27,91 59,87 13,-1 23,-7 28,-17 5,-10 9,-24 9,-43zm83 23l42 -8 9 47 -42 8 -9 -47zm316 -157c12,42 13,76 4,101 -10,26 -29,43 -58,51 -29,8 -54,3 -75,-14 -22,-18 -38,-47 -50,-90 -11,-41 -13,-75 -3,-101 9,-26 28,-42 57,-50 29,-8 54,-3 75,14 22,17 38,47 50,89zm-43 12c-8,-30 -18,-52 -30,-67 -11,-14 -26,-20 -43,-15 -17,5 -26,16 -29,35 -2,19 1,43 9,72 8,28 18,50 29,65 12,16 26,21 44,16 17,-4 26,-16 29,-34 2,-19 -1,-43 -9,-72zm111 44l40 -14 16 45 -40 14 -16 -45zm68 -248l57 -26 124 147 -29 -190 55 -24 107 232 -37 16 -90 -198 35 223 -29 13 -145 -174 91 199 -33 14 -106 -232zm279 -138l41 -24 190 185 -38 22 -46 -47 -65 38 19 63 -36 20 -65 -257zm122 112l-85 -87 35 116 50 -29zm-13 -179l35 -25 71 99 -7 -143 36 -26 1 114 158 87 -38 27 -121 -70 0 52 49 68 -34 25 -150 -208zm198 -145l38 -29 211 161 -34 26 -52 -41 -60 45 26 61 -32 24 -97 -247zm136 96l-95 -76 48 111 47 -35zm-44 -178l46 -44c14,-14 27,-24 39,-30 12,-6 26,-8 41,-4 15,3 30,11 43,24 11,12 19,25 23,39 3,13 2,26 -2,38 -5,12 -16,27 -34,44l-16 15 71 71 -31 30 -180 -183zm54 -6l62 64 16 -15c13,-13 20,-24 20,-34 0,-10 -5,-21 -16,-32 -8,-9 -17,-14 -25,-16 -9,-2 -16,-1 -21,2 -5,2 -12,8 -21,17l-15 14zm291 -168c33,29 53,57 59,83 6,27 0,51 -20,73 -20,22 -44,32 -71,29 -28,-3 -58,-19 -91,-48 -33,-29 -52,-57 -59,-83 -6,-27 1,-51 21,-74 20,-22 43,-31 71,-28 27,3 57,19 90,48zm-30 33c-23,-20 -43,-33 -61,-40 -18,-6 -32,-2 -44,11 -12,13 -14,28 -5,45 8,16 24,35 47,55 22,20 42,33 60,39 18,7 33,4 45,-10 12,-13 14,-28 5,-44 -8,-17 -23,-36 -47,-56zm-45 -148l49 -61c12,-15 23,-25 31,-31 9,-6 20,-9 33,-7 13,1 26,6 38,16 22,18 29,39 20,65 27,-18 53,-17 79,4 15,12 24,27 28,45 3,18 -6,40 -27,67l-49 61 -202 -159zm110 34l17 -21c11,-15 16,-27 15,-36 -2,-9 -7,-17 -16,-24 -10,-8 -19,-11 -28,-9 -9,2 -17,9 -27,20l-19 24 58 46zm91 72l21 -27c20,-24 19,-45 -3,-62 -8,-7 -18,-10 -29,-10 -11,-1 -22,7 -35,23l-20 24 66 52zm-62 -301l25 -40 255 80 -24 36 -63 -21 -40 63 45 48 -22 34 -176 -200zm160 44l-115 -38 84 87 31 -49z"/>
  <path class="fil2" d="M1234 4218l-235 100 -48 -114 32 -14 32 75 203 -86 16 39zm-232 -265c42,-13 76,-15 102,-7 26,9 43,27 51,56 9,28 5,53 -11,75 -17,21 -46,39 -88,51 -42,13 -75,15 -101,7 -26,-9 -44,-27 -52,-56 -9,-28 -5,-53 12,-75 16,-21 46,-38 87,-51zm13 42c-29,9 -50,20 -65,31 -15,12 -19,27 -14,43 5,17 17,26 36,28 18,1 42,-2 71,-11 28,-9 50,-19 65,-31 15,-11 20,-26 14,-43 -5,-17 -16,-26 -35,-27 -18,-2 -42,1 -72,10zm-13 -224l-5 -39c57,-7 92,12 104,58 8,30 3,56 -16,77 -19,20 -48,36 -87,46 -41,11 -75,12 -102,3 -26,-10 -43,-29 -51,-59 -12,-45 9,-79 63,-102l16 37c-36,14 -51,32 -45,56 8,32 45,39 110,21 60,-16 86,-40 78,-71 -4,-13 -11,-21 -22,-25 -10,-4 -25,-4 -43,-2zm-10 -128l-167 101 -7 -42 121 -69 -135 -21 -6 -38 200 34c25,5 43,10 53,17 10,8 16,20 19,37l3 17 -36 6 -3 -17c-1,-4 -2,-8 -6,-13 -3,-4 -12,-8 -26,-11l-10 -1zm26 -110l-224 -32 -7 -62 213 -73 -1 -14 89 -10 4 29 -54 11 13 128 55 -1 3 29 -89 9 -2 -14zm-4 -38l-9 -85 -172 54 1 10 180 21zm-233 -223l0 -47 255 -68 0 42 -64 16 0 75 64 16 0 40 -255 -74zm158 -48l-117 29 117 29 0 -58zm-153 -109l4 -63c1,-20 3,-36 8,-49 4,-12 13,-22 27,-30 13,-8 29,-11 47,-10 17,1 31,5 43,12 12,8 20,18 25,30 4,12 6,30 5,54l-1 22 99 6 -2 42 -255 -14zm35 -40l89 5 1 -21c1,-19 -2,-32 -8,-40 -7,-7 -18,-11 -34,-12 -11,-1 -21,1 -29,5 -7,5 -12,10 -14,15 -2,6 -3,15 -4,27l-1 21zm172 -281l11 -38c55,17 79,49 71,96 -5,31 -20,52 -46,63 -26,11 -58,14 -98,7 -42,-6 -73,-19 -94,-39 -20,-19 -27,-44 -23,-74 8,-46 41,-69 99,-68l0 40c-39,-2 -60,9 -64,33 -5,33 25,54 92,65 62,9 95,-2 100,-34 2,-13 -1,-23 -9,-31 -9,-8 -22,-15 -39,-20zm-153 -99l38 -151 34 9 -14 55 213 53 -10 41 -213 -53 -13 55 -35 -9zm47 -183l22 -74c6,-19 12,-33 18,-41 6,-9 15,-15 27,-19 12,-3 26,-3 41,2 27,8 41,26 42,52 18,-26 43,-34 75,-25 18,6 32,17 42,32 10,16 10,40 0,72l-23 75 -244 -74zm113 -9l8 -26c5,-18 6,-30 1,-38 -5,-8 -13,-13 -23,-17 -13,-3 -22,-3 -30,2 -7,5 -13,14 -17,28l-9 30 70 21zm110 34l10 -33c9,-30 1,-48 -26,-57 -10,-3 -20,-2 -30,2 -10,3 -18,15 -24,34l-9 30 79 24zm-146 -253l57 -134 31 13 -41 96 67 28 32 -75 31 14 -31 75 73 31 41 -97 32 13 -58 136 -234 -100zm75 -168l18 -38 96 44 31 -68 -95 -45 17 -38 232 108 -18 38 -103 -48 -32 68 103 48 -18 39 -231 -108zm111 -210l21 -36 91 54 39 -64 -91 -55 22 -36 219 131 -22 37 -97 -59 -39 65 97 58 -22 36 -218 -131zm332 -47l-204 -154 25 -33 79 59 22 -28c11,-15 22,-26 32,-32 9,-6 21,-7 35,-5 15,2 29,9 43,19 19,15 30,31 35,49 4,18 -1,37 -16,56l-51 69zm-3 -55l24 -33c6,-7 8,-16 7,-25 -2,-9 -9,-18 -21,-28 -13,-9 -24,-13 -33,-12 -9,2 -17,6 -22,13l-25 33 70 52zm-94 -241l26 -34 204 154 -26 33 -204 -153zm282 40l17 15 -28 32 -190 -171 28 -31 107 95c1,2 10,10 25,25 -7,-14 -14,-30 -20,-48l-39 -116 -19 -16 29 -32 189 171 -28 31 -98 -88c-1,-1 -12,-11 -32,-31 7,14 14,30 20,49l39 115zm-235 -190l18 -20c12,7 25,4 36,-9 11,-12 13,-25 5,-37l18 -19c18,25 17,49 -5,73 -21,23 -45,27 -72,12zm415 -53l-172 -95 34 -27 119 70 -48 -127 29 -24 71 191c9,23 13,42 11,54 -1,12 -8,24 -22,34l-13 11 -23 -28 13 -11c3,-2 6,-6 8,-11 3,-5 2,-14 -4,-28l-3 -9zm-15 -221l34 -25 63 84 60 -45 -63 -84 33 -26 154 204 -34 25 -68 -90 -60 45 68 91 -34 25 -153 -204zm351 42l12 19 -36 22 -135 -216 36 -22 75 121c1,1 7,12 18,31 -3,-16 -6,-33 -6,-52l-6 -122 -13 -21 36 -22 135 216 -36 22 -70 -112c0,-1 -8,-14 -22,-38 3,15 5,33 6,52l6 122zm51 -293l69 -34c18,-8 32,-13 42,-15 11,-2 21,1 32,7 11,7 20,17 27,31 12,26 9,48 -10,67 32,-5 55,8 70,38 8,17 10,34 5,52 -5,18 -22,34 -53,49l-70 34 -112 -229zm83 77l24 -12c17,-8 27,-17 29,-25 3,-9 1,-19 -3,-28 -6,-12 -13,-19 -22,-21 -8,-2 -19,1 -32,7l-28 13 32 66zm51 104l31 -15c28,-14 36,-33 24,-58 -5,-9 -12,-17 -22,-21 -10,-5 -24,-3 -42,6l-27 13 36 75zm83 -281l138 -50 11 32 -98 35 25 69 77 -28 12 32 -77 28 27 75 100 -36 11 32 -139 51 -87 -240zm180 -64l60 -19c20,-6 36,-9 49,-9 13,0 26,5 38,15 12,10 21,24 26,41 5,16 6,31 3,45 -4,14 -10,25 -20,33 -9,9 -26,17 -49,24l-21 6 29 95 -40 13 -75 -244zm50 19l26 85 20 -6c18,-6 29,-13 34,-22 5,-8 5,-20 0,-35 -3,-12 -8,-20 -15,-26 -6,-5 -13,-8 -19,-8 -5,0 -14,2 -26,6l-20 6zm319 63l39 -3c4,57 -17,91 -64,100 -30,7 -55,0 -75,-20 -20,-20 -34,-50 -42,-89 -9,-42 -8,-76 3,-101 11,-26 31,-42 61,-49 45,-9 78,13 98,68l-37 14c-12,-37 -30,-52 -54,-47 -32,6 -41,43 -27,108 13,61 36,89 68,82 12,-3 21,-9 25,-20 4,-11 6,-25 5,-43zm133 44l2 22 -42 5 -26 -254 41 -4 15 142c1,2 1,13 3,35 3,-15 9,-31 17,-49l48 -112 -2 -25 42 -4 26 253 -42 5 -13 -132c-1,-1 -2,-16 -4,-44 -4,15 -9,32 -17,50l-48 112zm133 -244l155 -9 2 36 -57 3 11 219 -42 2 -11 -219 -57 3 -1 -35zm194 -8l146 2 -1 34 -104 -2 -1 73 81 2 0 34 -82 -2 -1 80 105 2 0 34 -148 -2 5 -255zm174 4l155 19 -5 36 -56 -7 -27 218 -42 -6 27 -217 -56 -7 4 -36zm272 34l61 14 8 191 93 -168 58 14 -57 248 -39 -9 49 -212 -108 199 -30 -7 -9 -226 -49 212 -34 -7 57 -249zm417 245c-13,41 -31,70 -52,87 -22,16 -47,20 -75,10 -29,-9 -47,-26 -55,-53 -8,-26 -6,-59 8,-101 13,-41 31,-70 53,-86 22,-17 47,-20 75,-11 28,9 46,26 55,52 8,26 5,60 -9,102zm-42 -14c10,-29 14,-53 12,-71 -1,-19 -10,-31 -27,-36 -16,-6 -31,-1 -43,13 -12,14 -23,36 -32,65 -9,28 -13,52 -12,70 1,19 10,32 27,37 17,6 31,1 43,-13 12,-14 23,-36 32,-65zm145 -81l58 26c19,8 33,17 43,25 10,9 16,21 19,36 2,16 0,32 -8,48 -7,16 -16,27 -27,36 -11,8 -23,12 -36,12 -13,0 -31,-5 -53,-15l-20 -9 -41 92 -38 -18 103 -233zm26 47l-36 82 19 8c17,8 30,10 39,6 10,-3 18,-12 24,-26 5,-11 6,-21 5,-29 -1,-9 -4,-15 -9,-19 -4,-4 -12,-8 -23,-13l-19 -9zm202 251l31 24c-35,45 -74,56 -115,32 -27,-15 -41,-37 -42,-65 -1,-29 8,-60 28,-95 21,-37 45,-61 70,-73 26,-12 51,-10 78,5 40,23 50,62 28,117l-37 -15c15,-36 13,-60 -9,-72 -28,-16 -59,5 -92,63 -32,54 -33,89 -5,106 11,6 22,7 33,2 10,-5 21,-15 32,-29zm162 -106l36 23 -65 103 130 -63 38 24 -105 45 -21 177 -38 -24 18 -137 -48 20 -44 71 -36 -22 135 -217zm241 329c-27,35 -54,56 -80,64 -26,8 -50,3 -74,-16 -23,-18 -34,-41 -33,-68 1,-27 15,-58 42,-93 27,-34 53,-55 79,-63 26,-8 51,-3 75,16 23,18 34,41 33,68 -1,27 -16,58 -42,92zm-35 -27c18,-24 30,-45 35,-63 5,-18 1,-32 -13,-43 -14,-11 -29,-12 -45,-2 -16,9 -33,26 -52,50 -18,23 -30,44 -36,62 -5,18 -1,33 14,44 13,10 28,11 44,2 16,-9 34,-26 53,-50zm-12 152l174 -187 91 85 -25 26 -59 -56 -150 161 -31 -29zm320 138c-31,30 -60,47 -87,51 -27,5 -51,-4 -71,-25 -21,-22 -29,-46 -24,-73 5,-26 23,-55 55,-85 31,-31 60,-48 87,-52 27,-4 51,4 72,26 20,21 28,45 23,72 -5,27 -23,55 -55,86zm-30 -32c21,-21 36,-41 44,-58 7,-17 5,-32 -7,-44 -12,-13 -27,-16 -45,-9 -17,7 -37,21 -58,42 -22,21 -36,40 -44,57 -8,17 -6,33 7,46 12,12 26,15 43,8 18,-7 37,-21 60,-42zm58 228l-18 13 -25 -34 207 -150 24 34 -116 84c-1,1 -11,8 -29,20 15,-4 32,-8 51,-10l122 -14 20 -15 24 34 -206 150 -25 -34 107 -77c1,-1 13,-9 37,-25 -15,4 -32,7 -52,10l-121 14zm339 82l33 55c10,17 17,32 20,45 3,12 1,26 -5,40 -7,14 -18,26 -34,35 -14,9 -29,13 -42,13 -14,1 -27,-3 -37,-10 -11,-8 -23,-22 -35,-43l-12 -18 -85 51 -22 -36 219 -132zm-6 53l-77 46 11 18c10,16 19,26 29,28 10,3 21,0 35,-8 10,-6 17,-13 21,-21 3,-8 5,-15 3,-20 -1,-6 -5,-14 -12,-25l-10 -18zm116 137l61 132 -30 15 -44 -95 -66 31 34 74 -31 14 -34 -73 -72 33 44 96 -31 15 -63 -134 232 -108zm-114 367l99 -40c-20,-6 -33,-19 -41,-37 -5,-12 -6,-24 -4,-35 2,-11 8,-21 16,-30 9,-8 23,-16 42,-24l82 -33 16 39 -84 34c-17,6 -27,13 -31,20 -5,7 -5,15 -2,24 6,14 19,24 37,30l106 -43 16 39 -236 95 -16 -39zm276 16l12 41 -102 29 21 72 101 -29 12 41 -245 70 -12 -41 109 -31 -21 -72 -109 31 -11 -40 245 -71zm-27 421c-43,9 -77,7 -102,-4 -25,-11 -40,-31 -46,-60 -5,-29 1,-54 20,-74 19,-19 50,-33 93,-42 42,-8 76,-7 101,5 25,11 40,31 46,60 6,29 -1,54 -20,73 -19,20 -49,34 -92,42zm-9 -43c30,-6 53,-14 68,-24 16,-10 22,-24 19,-41 -3,-18 -14,-28 -33,-32 -18,-3 -42,-2 -72,4 -29,5 -52,13 -68,23 -16,11 -22,24 -18,42 3,17 14,27 32,31 18,4 42,3 72,-3zm-110 110l253 -35 17 122 -35 5 -12 -80 -217 30 -6 -42zm151 313c-44,1 -77,-5 -100,-20 -23,-15 -35,-37 -36,-67 -1,-30 10,-53 31,-69 22,-17 55,-26 98,-28 44,-1 77,6 100,21 23,14 35,37 36,67 1,29 -10,52 -31,69 -22,16 -55,25 -98,27zm-2 -45c31,-1 54,-5 71,-13 18,-7 26,-20 25,-37 0,-18 -10,-30 -27,-36 -18,-7 -42,-9 -72,-8 -30,1 -53,5 -71,12 -17,8 -25,21 -25,39 1,17 10,29 27,35 17,7 42,10 72,8zm-107 245c6,-29 18,-50 38,-63 20,-13 43,-18 71,-16 31,2 55,11 72,29 17,17 26,38 27,65l31 2 -2 36 -32 -3c-5,28 -17,49 -37,63 -19,13 -43,19 -72,17 -61,-4 -93,-36 -98,-94l-32 -2 3 -36 31 2zm177 13c-5,-31 -29,-48 -71,-51 -40,-3 -65,11 -75,41l146 10zm-149 25c6,31 29,48 72,51 40,3 65,-11 74,-41l-146 -10zm-65 131l7 -38 239 112 -9 51 -263 21 8 -44 218 -13 -200 -89zm51 366c-42,-11 -72,-27 -90,-48 -17,-21 -22,-46 -14,-74 7,-29 24,-48 50,-58 25,-9 59,-8 101,3 42,11 72,27 90,48 17,21 22,46 14,75 -7,28 -24,47 -50,57 -25,9 -59,8 -101,-3zm11 -43c30,8 54,11 72,8 19,-2 30,-11 35,-28 4,-17 -1,-32 -16,-43 -15,-11 -37,-21 -66,-28 -29,-8 -52,-11 -71,-9 -19,2 -31,12 -36,30 -4,16 1,30 16,41 14,12 37,21 66,29zm105 105l-48 148 -34 -11 17 -54 -208 -68 13 -40 208 67 18 -53 34 11zm-80 227l-20 43 -260 -41 17 -40 65 12 30 -68 -52 -41 17 -37 203 172zm-164 -20l118 21 -95 -74 -23 53z"/>
  <polygon class="fil1" points="4423,5087 4423,5323 2441,5323 2441,5087 "/>
  <polygon class="fil1" points="1189,4306 1229,4383 1313,4397 1253,4458 1266,4543 1189,4505 1112,4543 1125,4458 1064,4397 1149,4383 "/>
  <polygon class="fil1" points="5701,4295 5741,4372 5825,4386 5765,4447 5778,4532 5701,4494 5624,4532 5637,4447 5576,4386 5661,4372 "/>
  <path class="fil0" d="M3353 1918c0,0 -9,-41 -45,-98 -37,-56 -28,-149 43,-186 70,-38 127,-60 150,-102 11,-22 18,-38 23,-51 4,-11 -1,-24 7,-25 7,-2 10,15 11,21 17,61 3,80 -15,110 83,-45 103,-93 127,-195 3,-12 1,-39 10,-39 12,-1 15,22 18,36 30,114 28,214 -93,296 -53,35 -23,213 -114,230l-47 8c-39,-118 0,-222 54,-251 0,0 -66,29 -86,89 -20,61 15,155 15,155l-58 2z"/>
 </g>
</svg>
